# Blender v3.0.1 OBJ File: 'diceTextured.blend'
# www.blender.org
o Cube
v 1.000000 1.000000 -1.000000
v 1.000000 -1.000000 -1.000000
v 1.000000 1.000000 1.000000
v 1.000000 -1.000000 1.000000
v -1.000000 -1.000000 -1.000000
v -1.000000 1.000000 1.000000
v -1.000000 -1.000000 1.000000
v -1.000000 1.000000 -1.000000
v -1.000000 1.000000 -1.000000
v 1.000000 1.000000 -1.000000
v 1.000000 1.000000 -1.000000
v 1.000000 1.000000 1.000000
v 1.000000 1.000000 1.000000
v -1.000000 1.000000 1.000000
vt 0.500000 0.250043
vt 0.250043 0.000087
vt 0.500000 0.000087
vt 0.000087 0.749957
vt 0.250043 0.500000
vt 0.250043 0.749957
vt 0.250043 0.250043
vt 0.500000 0.500000
vt 0.500000 0.749957
vt 0.500000 0.999913
vt 0.749957 0.500000
vt 0.000087 0.500000
vt 0.250043 0.999913
vt 0.749957 0.749957
vn -0.7071 0.7071 0.0000
vn 0.0000 1.0000 0.0000
vn 0.0000 0.0000 1.0000
vn -0.5773 -0.5773 0.5773
vn 0.5773 -0.5773 0.5773
vn -0.5773 -0.5773 -0.5773
vn 0.5773 -0.5773 -0.5773
vn 1.0000 0.0000 0.0000
vn 0.0000 0.0000 -1.0000
s 1
f 9/1/1 13/2/2 11/3/2
f 12/4/3 7/5/4 4/6/5
f 6/7/1 5/8/6 7/5/4
f 2/9/7 7/5/4 5/8/6
f 10/10/8 4/6/5 2/9/7
f 8/11/9 2/9/7 5/8/6
f 9/1/1 6/7/1 13/2/2
f 12/4/3 14/12/3 7/5/4
f 6/7/1 9/1/1 5/8/6
f 2/9/7 4/6/5 7/5/4
f 10/10/8 3/13/8 4/6/5
f 8/11/9 1/14/9 2/9/7
